<svg width="9" height="16" viewBox="0 0 9 16" fill="none" xmlns="http://www.w3.org/2000/svg">
<path d="M4.42188 4.23C4.65487 4.23 4.84375 3.95466 4.84375 3.615C4.84375 3.27534 4.65487 3 4.42188 3C4.18888 3 4 3.27534 4 3.615C4 3.95466 4.18888 4.23 4.42188 4.23Z" stroke="white" stroke-width="1.5" stroke-linecap="round" stroke-linejoin="round"/>
<path d="M4.42188 8.73977C4.65487 8.73977 4.84375 8.46442 4.84375 8.12477C4.84375 7.78511 4.65487 7.50977 4.42188 7.50977C4.18888 7.50977 4 7.78511 4 8.12477C4 8.46442 4.18888 8.73977 4.42188 8.73977Z" stroke="white" stroke-width="1.5" stroke-linecap="round" stroke-linejoin="round"/>
<path d="M4.42188 13.2505C4.65487 13.2505 4.84375 12.9752 4.84375 12.6355C4.84375 12.2959 4.65487 12.0205 4.42188 12.0205C4.18888 12.0205 4 12.2959 4 12.6355C4 12.9752 4.18888 13.2505 4.42188 13.2505Z" stroke="white" stroke-width="1.5" stroke-linecap="round" stroke-linejoin="round"/>
</svg>
