<svg width="9" height="16" viewBox="0 0 9 16" fill="none" xmlns="http://www.w3.org/2000/svg">
<path d="M4.5 3.25C4.733 3.25 4.92188 2.91421 4.92188 2.5C4.92188 2.08579 4.733 1.75 4.5 1.75C4.267 1.75 4.07812 2.08579 4.07812 2.5C4.07812 2.91421 4.267 3.25 4.5 3.25Z" stroke="white" stroke-width="1.5" stroke-linecap="round" stroke-linejoin="round"/>
<path d="M4.5 8.75C4.733 8.75 4.92188 8.41421 4.92188 8C4.92188 7.58579 4.733 7.25 4.5 7.25C4.267 7.25 4.07812 7.58579 4.07812 8C4.07812 8.41421 4.267 8.75 4.5 8.75Z" stroke="white" stroke-width="1.5" stroke-linecap="round" stroke-linejoin="round"/>
<path d="M4.5 14.25C4.733 14.25 4.92188 13.9142 4.92188 13.5C4.92188 13.0858 4.733 12.75 4.5 12.75C4.267 12.75 4.07812 13.0858 4.07812 13.5C4.07812 13.9142 4.267 14.25 4.5 14.25Z" stroke="white" stroke-width="1.5" stroke-linecap="round" stroke-linejoin="round"/>
</svg>
