<svg width="25" height="25" viewBox="0 0 25 25" fill="none" xmlns="http://www.w3.org/2000/svg">
<path d="M10.5505 9.37521V16.3845C10.5587 16.8981 10.7684 17.3879 11.1345 17.7483C11.5006 18.1086 11.9936 18.3106 12.5073 18.3106C13.021 18.3106 13.5141 18.1086 13.8802 17.7483C14.2463 17.3879 14.456 16.8981 14.4641 16.3845L14.4705 7.17794C14.4758 6.73894 14.3939 6.30325 14.2296 5.89613C14.0653 5.489 13.8218 5.11854 13.5133 4.80622C13.2047 4.4939 12.8372 4.24594 12.4321 4.0767C12.027 3.90746 11.5924 3.82031 11.1533 3.82031C10.7143 3.82031 10.2796 3.90746 9.87452 4.0767C9.46942 4.24594 9.10194 4.4939 8.79339 4.80622C8.48484 5.11854 8.24135 5.489 8.07703 5.89613C7.91272 6.30325 7.83086 6.73894 7.83618 7.17794V16.4465C7.85391 17.6715 8.353 18.8404 9.22557 19.7004C10.0981 20.5605 11.2741 21.0426 12.4993 21.0426C13.7244 21.0426 14.9004 20.5605 15.773 19.7004C16.6455 18.8404 17.1446 17.6715 17.1624 16.4465V7.78536" stroke="black" stroke-width="1.5625" stroke-miterlimit="10" stroke-linecap="square"/>
</svg>
