<svg width="24" height="24" viewBox="0 0 24 24" fill="none" xmlns="http://www.w3.org/2000/svg">
<path d="M2.99922 20C2.71589 20 2.47855 19.904 2.28722 19.712C2.09589 19.52 1.99989 19.2827 1.99922 19V14H1.82422C1.50755 14 1.24922 13.879 1.04922 13.637C0.849219 13.395 0.782552 13.116 0.849219 12.8L1.84922 7.8C1.89922 7.56667 2.01589 7.375 2.19922 7.225C2.38255 7.075 2.59089 7 2.82422 7H16.1742C16.4076 7 16.6159 7.075 16.7992 7.225C16.9826 7.375 17.0992 7.56667 17.1492 7.8L18.1492 12.8C18.2159 13.1167 18.1492 13.396 17.9492 13.638C17.7492 13.88 17.4909 14.0007 17.1742 14H16.9992V19C16.9992 19.2833 16.9032 19.521 16.7112 19.713C16.5192 19.905 16.2819 20.0007 15.9992 20C15.7166 19.9993 15.4792 19.9033 15.2872 19.712C15.0952 19.5207 14.9992 19.2833 14.9992 19V14H10.9992V19C10.9992 19.2833 10.9032 19.521 10.7112 19.713C10.5192 19.905 10.2819 20.0007 9.99922 20H2.99922ZM3.99922 18H8.99922V14H3.99922V18ZM2.99922 6C2.71589 6 2.47855 5.904 2.28722 5.712C2.09589 5.52 1.99989 5.28267 1.99922 5C1.99855 4.71733 2.09455 4.48 2.28722 4.288C2.47989 4.096 2.71722 4 2.99922 4H15.9992C16.2826 4 16.5202 4.096 16.7122 4.288C16.9042 4.48 16.9999 4.71733 16.9992 5C16.9986 5.28267 16.9026 5.52033 16.7112 5.713C16.5199 5.90567 16.2826 6.00133 15.9992 6H2.99922ZM3.04922 12H15.9492L15.3492 9H3.64922L3.04922 12Z" fill="white"/>
</svg>
