<svg width="36" height="36" viewBox="0 0 36 36" fill="none" xmlns="http://www.w3.org/2000/svg">
<path d="M15.8328 33.7556C15.1408 33.7556 14.5451 33.5249 14.0459 33.0636C13.5466 32.6022 13.2452 32.0384 13.1416 31.372L12.7956 28.8347C12.4625 28.7065 12.1488 28.5527 11.8545 28.3733C11.5603 28.1939 11.2717 28.0017 10.9888 27.7967L8.6052 28.7962C7.96446 29.0782 7.32372 29.1038 6.68298 28.8731C6.04224 28.6425 5.54246 28.2324 5.18365 27.6429L3.37676 24.4905C3.01794 23.901 2.91542 23.273 3.0692 22.6067C3.22298 21.9403 3.56898 21.3893 4.1072 20.9536L6.14476 19.4158C6.11913 19.2364 6.10631 19.0631 6.10631 18.896V17.858C6.10631 17.6919 6.11913 17.5192 6.14476 17.3398L4.1072 15.802C3.56898 15.3663 3.22298 14.8153 3.0692 14.1489C2.91542 13.4825 3.01794 12.8546 3.37676 12.2651L5.18365 9.11267C5.54246 8.52319 6.04224 8.11311 6.68298 7.88245C7.32372 7.65178 7.96446 7.67741 8.6052 7.95933L10.9888 8.95889C11.2707 8.75385 11.5654 8.56163 11.873 8.38222C12.1805 8.20282 12.4881 8.04904 12.7956 7.92089L13.1416 5.38356C13.2442 4.71719 13.5456 4.15333 14.0459 3.692C14.5462 3.23067 15.1418 3 15.8328 3H19.4465C20.1385 3 20.7347 3.23067 21.235 3.692C21.7353 4.15333 22.0362 4.71719 22.1376 5.38356L22.4836 7.92089C22.8168 8.04904 23.1311 8.20282 23.4263 8.38222C23.7216 8.56163 24.0096 8.75385 24.2905 8.95889L26.6741 7.95933C27.3148 7.67741 27.9556 7.65178 28.5963 7.88245C29.2371 8.11311 29.7368 8.52319 30.0957 9.11267L31.9025 12.2651C32.2614 12.8546 32.3639 13.4825 32.2101 14.1489C32.0563 14.8153 31.7103 15.3663 31.1721 15.802L29.1345 17.3398C29.1602 17.5192 29.173 17.6924 29.173 17.8596V18.896C29.173 19.0631 29.1474 19.2364 29.0961 19.4158L31.1337 20.9536C31.6719 21.3893 32.0179 21.9403 32.1717 22.6067C32.3254 23.273 32.2229 23.901 31.8641 24.4905L30.0188 27.6429C29.6599 28.2324 29.1602 28.6425 28.5194 28.8731C27.8787 29.1038 27.2379 29.0782 26.5972 28.7962L24.2905 27.7967C24.0086 28.0017 23.7139 28.1939 23.4063 28.3733C23.0988 28.5527 22.7912 28.7065 22.4836 28.8347L22.1376 31.372C22.0351 32.0384 21.7342 32.6022 21.235 33.0636C20.7357 33.5249 20.1396 33.7556 19.4465 33.7556H15.8328ZM17.7165 23.76C19.2031 23.76 20.4717 23.2346 21.5225 22.1838C22.5734 21.133 23.0988 19.8643 23.0988 18.3778C23.0988 16.8913 22.5734 15.6226 21.5225 14.5718C20.4717 13.521 19.2031 12.9956 17.7165 12.9956C16.2044 12.9956 14.9291 13.521 13.8905 14.5718C12.852 15.6226 12.3333 16.8913 12.3343 18.3778C12.3353 19.8643 12.8546 21.133 13.8921 22.1838C14.9296 23.2346 16.2044 23.76 17.7165 23.76Z" fill="white"/>
</svg>
