<svg width="24" height="24" viewBox="0 0 24 24" fill="none" xmlns="http://www.w3.org/2000/svg">
<path d="M17.5045 11.1962V17.8037C17.5063 18.0553 17.4579 18.3048 17.362 18.5375C17.2662 18.7702 17.1249 18.9814 16.9464 19.1588C16.7679 19.3363 16.5558 19.4763 16.3225 19.5707C16.0893 19.6651 15.8395 19.712 15.5878 19.7087H6.20702C5.95446 19.7119 5.7038 19.6645 5.46984 19.5694C5.23588 19.4742 5.02334 19.3331 4.84478 19.1545C4.66622 18.9758 4.52524 18.7632 4.43016 18.5292C4.33508 18.2952 4.28782 18.0446 4.29118 17.792V8.41116C4.28816 8.15862 4.33568 7.90803 4.43093 7.67413C4.52619 7.44022 4.66725 7.22773 4.84584 7.04915C5.02442 6.87056 5.23691 6.72949 5.47082 6.63424C5.70472 6.53899 5.95531 6.49147 6.20785 6.49449H12.8145M19.707 4.29199L10.8978 13.1012M19.707 4.29199H15.302M19.707 4.29199V8.69699" stroke="#128C7E" stroke-width="1.25" stroke-linecap="round" stroke-linejoin="round"/>
</svg>
