<svg width="32" height="32" viewBox="0 0 32 32" fill="none" xmlns="http://www.w3.org/2000/svg">
<rect width="32" height="32" rx="16" fill="#128C7E"/>
<path d="M16.0001 17.555C17.2912 17.555 18.3334 16.5128 18.3334 15.2217V10.555C18.3334 9.2639 17.2912 8.22168 16.0001 8.22168C14.709 8.22168 13.6668 9.2639 13.6668 10.555V15.2217C13.6668 16.5128 14.709 17.555 16.0001 17.555ZM20.5968 15.2217C20.2157 15.2217 19.8968 15.5017 19.8345 15.8828C19.5157 17.7106 17.9212 19.1106 16.0001 19.1106C14.079 19.1106 12.4845 17.7106 12.1657 15.8828C12.1379 15.7 12.046 15.533 11.9063 15.4119C11.7666 15.2907 11.5883 15.2233 11.4034 15.2217C10.929 15.2217 10.5557 15.6417 10.6257 16.1083C11.0068 18.4417 12.8734 20.2695 15.2223 20.6039V22.2217C15.2223 22.6495 15.5723 22.9995 16.0001 22.9995C16.4279 22.9995 16.7779 22.6495 16.7779 22.2217V20.6039C17.9225 20.4407 18.9854 19.9169 19.812 19.1085C20.6386 18.3 21.186 17.2491 21.3745 16.1083C21.4523 15.6417 21.0712 15.2217 20.5968 15.2217Z" fill="white"/>
</svg>
